<?xml version="1.0" ?><svg viewBox="0 0 24 24" xmlns="http://www.w3.org/2000/svg"><defs><style>.cls-1{fill:#ffeabb;}.cls-2{fill:#f7bf75;}</style></defs><g data-name="Exchange Currency" id="Exchange_Currency"><path class="cls-1" d="M6,13.13a4.18,4.18,0,1,1-4.18,4.18A4.19,4.19,0,0,1,6,13.13"/><path class="cls-1" d="M17.68,2.51A4.18,4.18,0,1,1,13.5,6.69a4.18,4.18,0,0,1,4.18-4.18"/><path class="cls-2" d="M6,14.42a2.9,2.9,0,1,1-2.89,2.89A2.89,2.89,0,0,1,6,14.42"/><path class="cls-2" d="M17.68,4A2.74,2.74,0,1,1,15,6.69,2.74,2.74,0,0,1,17.68,4"/><path d="M6,22a4.68,4.68,0,1,0-4.68-4.68A4.69,4.69,0,0,0,6,22Zm0-8.36a3.68,3.68,0,1,1-3.68,3.68A3.69,3.69,0,0,1,6,13.63Z"/><path d="M6.05,17.78a.27.27,0,0,1,.27.27.28.28,0,0,1-.46.2.24.24,0,0,1-.06-.09.5.5,0,1,0-.92.39,1.18,1.18,0,0,0,.27.4,1.28,1.28,0,0,0,.4.27v.13a.5.5,0,0,0,.5.5.5.5,0,0,0,.5-.5v-.13a1.27,1.27,0,0,0-.5-2.44.27.27,0,0,1-.27-.27.28.28,0,0,1,.46-.2l.06.09A.5.5,0,0,0,7.23,16a1.26,1.26,0,0,0-.28-.4,1.09,1.09,0,0,0-.4-.27v-.13a.5.5,0,0,0-.5-.5.5.5,0,0,0-.5.5v.13a1.27,1.27,0,0,0,.5,2.44Z"/><path d="M17.68,11.37A4.68,4.68,0,1,0,13,6.69,4.69,4.69,0,0,0,17.68,11.37Zm0-8.36A3.68,3.68,0,1,1,14,6.69,3.68,3.68,0,0,1,17.68,3Z"/><path d="M14.45,11.75a.48.48,0,0,0-.7,0l-1.37,1.36a.5.5,0,0,0-.46-.46.52.52,0,0,0-.53.47l-.07,1.23a.5.5,0,0,0,.14.39.52.52,0,0,0,.35.14h0l1.23-.07a.5.5,0,0,0,0-1l1.37-1.37A.48.48,0,0,0,14.45,11.75Z"/><path d="M9.62,12.69a.5.5,0,0,0,.36-.14l1.37-1.37a.5.5,0,0,0,.46.46h0a.51.51,0,0,0,.5-.47l.07-1.23a.53.53,0,0,0-.15-.39.48.48,0,0,0-.38-.14l-1.23.07a.5.5,0,0,0,0,1L9.27,11.84a.51.51,0,0,0,0,.71A.49.49,0,0,0,9.62,12.69Z"/><path d="M15.68,7.19h.19A1.84,1.84,0,0,0,19,8.34a.48.48,0,0,0,0-.7.5.5,0,0,0-.71,0,.81.81,0,0,1-.59.24.83.83,0,0,1-.81-.69h1a.5.5,0,0,0,.5-.5.5.5,0,0,0-.5-.5h-1a.83.83,0,0,1,.81-.69.81.81,0,0,1,.59.24.5.5,0,0,0,.71,0A.5.5,0,0,0,19,5a1.86,1.86,0,0,0-1.3-.53,1.83,1.83,0,0,0-1.83,1.69h-.19a.5.5,0,0,0-.5.5A.5.5,0,0,0,15.68,7.19Z"/></g></svg>